The Muppets 2011 CAM XViD DTRG

Format : AVI
Format/Info : Audio Video Interleave
File size : 917 MiB
Duration : 1h 43mn
Overall bit rate : 1 242 Kbps
Writing library : VirtualDub build 32842/release

Video
ID : 0
Format : MPEG-4 Visual
Format profile : Advanced Simple@L5
Format settings, BVOP : 1
Format settings, QPel : No
Format settings, GMC : No warppoints
Format settings, Matrix : Default (H.263)
Muxing mode : Packed bitstream
Codec ID : XVID
Codec ID/Hint : XviD
Duration : 1h 43mn
Bit rate : 1 102 Kbps
Width : 624 pixels
Height : 262 pixels
Display aspect ratio : 2.40:1
Frame rate : 29.970 fps
Color space : YUV
Chroma subsampling : 4:2:0
Bit depth : 8 bits
Scan type : Progressive
Compression mode : Lossy
Bits/(Pixel*Frame) : 0.225
Stream size : 814 MiB (89%)
Writing library : XviD 64

Audio
ID : 1
Format : MPEG Audio
Format version : Version 1
Format profile : Layer 3
Codec ID : 55
Codec ID/Hint : MP3
Duration : 1h 43mn
Bit rate mode : Constant
Bit rate : 128 Kbps
Channel(s) : 2 channels
Sampling rate : 44.1 KHz
Compression mode : Lossy
Stream size : 94.5 MiB (10%)
Alignment : Split accross interleaves
Interleave, duration : 33 ms (1.00 video frame)
Interleave, preload duration : 500 ms

 
http://img585.imageshack.us/img585/3046/vlcsnap2011120418h12m50.png 
http://img190.imageshack.us/img190/5863/vlcsnap2011120418h03m43.png 
http://img9.imageshack.us/img9/549/vlcsnap2011120418h13m18.png